<svg width="18" height="20" viewBox="0 0 18 20" fill="none" xmlns="http://www.w3.org/2000/svg">
<path d="M8.14384 16.2877C6.53314 16.2877 4.95861 15.81 3.61937 14.9152C2.28012 14.0203 1.2363 12.7484 0.619916 11.2604C0.00352866 9.77226 -0.157746 8.13481 0.156485 6.55506C0.470717 4.97531 1.24634 3.52421 2.38528 2.38528C3.52421 1.24634 4.97531 0.470717 6.55506 0.156485C8.1348 -0.157747 9.77226 0.00352866 11.2603 0.619916C12.7484 1.2363 14.0203 2.28012 14.9152 3.61937C15.81 4.95861 16.2877 6.53314 16.2877 8.14384C16.2852 10.303 15.4265 12.373 13.8997 13.8997C12.373 15.4265 10.303 16.2853 8.14384 16.2877ZM8.14384 2.32681C6.99334 2.32681 5.86868 2.66798 4.91207 3.30716C3.95547 3.94634 3.20988 4.85484 2.76961 5.91776C2.32933 6.98068 2.21413 8.15029 2.43859 9.27868C2.66304 10.4071 3.21706 11.4436 4.03058 12.2571C4.84411 13.0706 5.8806 13.6246 7.00899 13.8491C8.13739 14.0735 9.30699 13.9583 10.3699 13.5181C11.4328 13.0778 12.3413 12.3322 12.9805 11.3756C13.6197 10.419 13.9609 9.29434 13.9609 8.14384C13.9591 6.60162 13.3456 5.12309 12.2551 4.03258C11.1646 2.94207 9.68605 2.32862 8.14384 2.32681Z" fill="#222222"/>
<path d="M15.793 20.0001C15.5296 20.0005 15.2695 19.9412 15.0324 19.8266C14.7952 19.7119 14.5872 19.545 14.4239 19.3383L11.2604 15.3431C11.1175 15.1635 11.0114 14.9575 10.9483 14.7369C10.8851 14.5163 10.8661 14.2854 10.8923 14.0574C10.9185 13.8294 10.9894 13.6088 11.101 13.4083C11.2125 13.2078 11.3626 13.0312 11.5425 12.8887C11.7224 12.7463 11.9286 12.6407 12.1494 12.578C12.3701 12.5154 12.6011 12.4969 12.829 12.5236C13.0569 12.5503 13.2773 12.6217 13.4776 12.7338C13.6779 12.8458 13.8541 12.9962 13.9962 13.1765L17.1597 17.1717C17.3633 17.4287 17.4903 17.7379 17.5262 18.0638C17.5621 18.3897 17.5055 18.7191 17.3629 19.0143C17.2202 19.3095 16.9973 19.5585 16.7196 19.7329C16.442 19.9072 16.1208 19.9998 15.793 20.0001V20.0001Z" fill="#222222"/>
</svg>
